<svg width="38" height="27" viewBox="0 0 38 27" fill="none" xmlns="http://www.w3.org/2000/svg">
<g clip-path="url(#clip0_101_1789)">
<path d="M37.2056 4.15412C36.7677 2.51812 35.4819 1.23247 33.8459 0.794536C30.8837 2.37834e-07 19 0 19 0C19 0 7.11641 2.37834e-07 4.1541 0.794536C2.51812 1.23247 1.23247 2.51812 0.794536 4.15412C2.37834e-07 7.11641 0 13.3007 0 13.3007C0 13.3007 2.37834e-07 19.4849 0.794536 22.4473C1.23247 24.0832 2.51812 25.3689 4.1541 25.8067C7.11641 26.6013 19 26.6013 19 26.6013C19 26.6013 30.8837 26.6013 33.8459 25.8067C35.4819 25.3689 36.7677 24.0832 37.2056 22.4473C38.0001 19.4849 38.0001 13.3007 38.0001 13.3007C38.0001 13.3007 37.9969 7.11641 37.2056 4.15412Z" fill="#FF0000"/>
<path d="M15.1963 19.0005L25.0686 13.3012L15.1963 7.60175V19.0005Z" fill="white"/>
</g>
<defs>
<clipPath id="clip0_101_1789">
<rect width="38" height="26.6013" fill="white"/>
</clipPath>
</defs>
</svg>
