<svg width="230" height="61" viewBox="0 0 230 61" fill="none" xmlns="http://www.w3.org/2000/svg">
<g style="mix-blend-mode:screen">
<path d="M85.2012 47.4445C75.9847 47.4445 71.4565 40.1422 71.4565 30.8631C71.4565 21.0999 76.5457 13.8783 85.0009 13.8783C87.846 13.8783 90.09 14.6448 92.2138 16.4603C92.8149 17.0251 93.2958 16.8638 93.3759 16.0972L93.5763 14.2414H94.538L95.0589 25.6587H94.1373C93.0153 19.1634 90.2503 15.6534 85.6821 15.6534C79.6312 15.6534 76.3453 21.8664 76.3453 30.3386C76.3453 38.9319 79.5912 45.508 85.8023 45.508C88.8077 45.508 90.8914 43.8135 91.8932 42.2401V34.2924C91.8932 31.8314 90.9315 31.1052 84.3998 31.1052V30.1369H98.5853V31.1052C96.4214 31.1052 96.1008 31.7103 96.1008 34.2924V42.0384C93.8167 45.3062 89.9698 47.4445 85.2012 47.4445Z" fill="white"/>
<path d="M104.146 20.7368C102.623 20.7368 101.541 19.6878 101.541 18.2758C101.541 16.8234 102.623 15.7745 104.146 15.7745C105.628 15.7745 106.71 16.8234 106.71 18.2758C106.71 19.6878 105.628 20.7368 104.146 20.7368ZM106.39 25.2149V42.6435C106.39 45.2255 106.79 45.8307 109.235 45.8307V46.799H99.6976V45.8307C102.142 45.8307 102.543 45.2255 102.543 42.6435V30.2176C102.543 27.5146 102.503 26.9497 100.178 27.918L99.8178 26.9901L105.708 24.6098L106.39 25.2149Z" fill="white"/>
<path d="M121.236 37.7619H122.358C122.358 44.0556 121.115 47.4445 117.188 47.4445C114.063 47.4445 112.42 45.5483 112.42 39.9002V27.0708H109.615V25.5781C112.54 25.4974 114.383 23.3188 114.784 19.5265H116.227V25.4167H121.035V27.0708H116.307V38.8512C116.307 42.4418 116.667 44.8221 118.551 44.8221C120.354 44.8221 121.236 42.5629 121.236 37.7619Z" fill="white"/>
<path d="M135.153 46.799H123.011V45.8307C126.738 45.8307 127.259 45.1045 127.259 42.6436V18.6792C127.259 16.2183 126.738 15.4921 123.011 15.4921V14.5238H135.554C141.404 14.5238 145.291 17.1058 145.291 22.5119C145.291 26.9901 142.366 29.6125 138.479 30.0966V30.2983C143.488 30.6211 146.774 33.7679 146.774 38.125C146.774 44.4994 141.565 46.799 135.153 46.799ZM131.707 17.4286V29.2897C132.709 29.4511 133.751 29.4511 134.712 29.4511C137.998 29.4511 140.883 27.3532 140.883 22.6733C140.883 18.0741 137.958 16.1779 134.792 16.1779C134.031 16.1779 133.189 16.2183 132.508 16.3796C131.947 16.5007 131.707 16.8638 131.707 17.4286ZM131.707 31.2666V43.8942C131.707 44.8625 132.749 45.1449 134.632 45.1449C138.399 45.1449 142.286 43.7328 142.286 38.1654C142.286 32.5979 137.838 31.1052 134.752 31.1052C133.71 31.1052 132.709 31.1052 131.707 31.2666Z" fill="white"/>
<path d="M161.423 47.4445L160.622 46.7586L160.542 43.3294L160.422 43.2891C159.059 45.4676 157.136 47.4445 154.291 47.4445C151.526 47.4445 149.923 45.1852 149.923 41.635V30.258C149.923 27.6356 149.803 27.1515 147.358 27.918L147.078 27.0304L153.249 25.0132L153.81 25.5377V41.2315C153.81 43.6118 154.531 44.7414 156.054 44.7414C157.657 44.7414 159.26 43.3697 160.542 41.635V30.258C160.542 27.6356 160.462 27.1515 157.977 27.918L157.697 27.0304L163.908 25.0132L164.429 25.5377V41.998C164.429 44.7011 164.509 45.2256 166.993 44.2977L167.354 45.2256L161.423 47.4445Z" fill="white"/>
<path d="M178.733 37.7619H179.855C179.855 44.0556 178.612 47.4445 174.685 47.4445C171.56 47.4445 169.917 45.5483 169.917 39.9002V27.0708H167.112V25.5781C170.037 25.4974 171.88 23.3188 172.281 19.5265H173.724V25.4167H178.532V27.0708H173.804V38.8512C173.804 42.4418 174.164 44.8221 176.048 44.8221C177.851 44.8221 178.733 42.5629 178.733 37.7619Z" fill="white"/>
<path d="M186.985 14.1204V42.6435C186.985 45.2255 187.345 45.8307 189.79 45.8307V46.7989H180.252V45.8307C182.697 45.8307 183.098 45.2255 183.098 42.6435V19.3247C183.098 16.7427 183.098 16.2182 180.693 17.4286L180.292 16.541L186.383 13.5555L186.985 14.1204Z" fill="white"/>
<path d="M204.374 38.1653H205.336C204.494 44.6607 201.769 47.4444 198.002 47.4444C193.474 47.4444 190.629 43.1276 190.629 36.4709C190.629 30.0965 193.434 24.6905 198.203 24.6905C202.891 24.6905 205.095 29.1283 205.095 35.0185H194.516V35.0992C194.516 40.586 196.199 44.459 199.525 44.459C201.328 44.459 203.412 43.0469 204.374 38.1653ZM198.203 26.3849C195.798 26.3849 194.797 29.33 194.556 33.3644H201.248C201.248 29.4914 200.567 26.3849 198.203 26.3849Z" fill="white"/>
<path d="M218.532 24.6905C219.934 24.6905 220.696 25.4973 220.696 26.8287C220.696 28.4021 219.774 29.4107 218.732 29.4107C218.011 29.4107 217.69 29.1283 217.169 28.5635C216.648 28.039 216.448 27.8776 215.967 27.8776C215.045 27.8776 213.963 29.209 213.122 31.67V42.4014C213.122 45.1448 213.723 45.7903 217.37 45.7903V46.7989H206.55V45.8307C208.874 45.8307 209.275 45.2255 209.275 42.6435V30.2176C209.275 27.5145 209.275 26.9497 206.871 27.9583L206.47 27.0304L209.676 25.7394L212.401 24.6098L213.122 25.2149V29.0879H213.242C214.364 26.9497 216.328 24.6905 218.532 24.6905Z" fill="white"/>
<path d="M0 23.8056C0 14.9591 0 10.5358 2.17567 7.40371C2.97009 6.26007 3.95431 5.26429 5.08466 4.46052C8.18032 2.25928 12.5522 2.25928 21.296 2.25928H34.5292C43.273 2.25928 47.6449 2.25928 50.7406 4.46052C51.8709 5.26429 52.8551 6.26007 53.6496 7.40371C55.8252 10.5358 55.8252 14.9591 55.8252 23.8056V37.1944C55.8252 46.041 55.8252 50.4643 53.6496 53.5963C52.8551 54.74 51.8709 55.7357 50.7406 56.5395C47.6449 58.7408 43.273 58.7408 34.5292 58.7408H21.296C12.5522 58.7408 8.18032 58.7408 5.08466 56.5395C3.95431 55.7357 2.97009 54.74 2.17567 53.5963C0 50.4643 0 46.041 0 37.1944V23.8056Z" fill="white"/>
<path d="M23.8946 32.3422L44.0016 42.7059C45.3301 43.3906 46.8931 42.3948 46.8931 40.8637V20.1363C46.8931 18.6053 45.3301 17.6095 44.0016 18.2942L23.8946 28.6579C22.4221 29.4169 22.4221 31.5832 23.8946 32.3422Z" fill="url(#paint0_radial_101_1818)"/>
<path d="M31.9306 32.3422L11.8236 42.7059C10.4951 43.3906 8.93213 42.3948 8.93213 40.8637V20.1363C8.93213 18.6053 10.4951 17.6095 11.8236 18.2942L31.9306 28.6579C33.4031 29.4169 33.4031 31.5832 31.9306 32.3422Z" fill="black"/>
</g>
<defs>
<radialGradient id="paint0_radial_101_1818" cx="0" cy="0" r="1" gradientUnits="userSpaceOnUse" gradientTransform="translate(28.2093 30.5) rotate(-179.999) scale(18.7187 19.9193)">
<stop stop-opacity="0"/>
<stop offset="1"/>
</radialGradient>
</defs>
</svg>
