<svg width="211" height="53" viewBox="0 0 211 53" fill="none" xmlns="http://www.w3.org/2000/svg">
<path d="M49.9934 13.8165C47.6172 9.74758 44.3942 6.52616 40.3233 4.15159C36.2518 1.77689 31.807 0.589844 26.9857 0.589844C22.165 0.589844 17.7187 1.77725 13.6481 4.15159C9.57685 6.52604 6.3539 9.74758 3.97777 13.8165C1.60201 17.8854 0.414062 22.3286 0.414062 27.1461C0.414062 32.9329 2.10334 38.1366 5.48273 42.7585C8.86176 47.3807 13.227 50.5791 18.578 52.3541C19.2009 52.4696 19.662 52.3883 19.9618 52.1123C20.2617 51.8359 20.4115 51.4898 20.4115 51.0753C20.4115 51.0062 20.4055 50.384 20.394 49.2081C20.3821 48.0322 20.3766 47.0064 20.3766 46.1311L19.5808 46.2687C19.0734 46.3615 18.4333 46.4009 17.6605 46.3898C16.8881 46.379 16.0862 46.2981 15.256 46.1477C14.4255 45.9986 13.6529 45.6528 12.9378 45.111C12.2231 44.5693 11.7157 43.8602 11.4158 42.9847L11.0698 42.189C10.8392 41.6593 10.4761 41.0708 9.98014 40.4257C9.48415 39.78 8.98258 39.3423 8.47519 39.1119L8.23295 38.9385C8.07153 38.8234 7.92175 38.6844 7.78324 38.5232C7.64485 38.362 7.54124 38.2007 7.47205 38.0391C7.40273 37.8775 7.46017 37.7448 7.64497 37.6408C7.82977 37.5368 8.16375 37.4863 8.64836 37.4863L9.34006 37.5896C9.8014 37.682 10.372 37.958 11.0527 38.4193C11.733 38.8803 12.2923 39.4796 12.7306 40.2169C13.2614 41.1623 13.9009 41.8827 14.6508 42.3784C15.4002 42.8742 16.1558 43.1216 16.9168 43.1216C17.6778 43.1216 18.3351 43.064 18.8889 42.9493C19.4421 42.834 19.9612 42.6606 20.4458 42.4303C20.6533 40.8851 21.2185 39.6981 22.1408 38.8683C20.8263 38.7302 19.6444 38.5223 18.5946 38.2458C17.5454 37.9689 16.4612 37.5196 15.3427 36.8965C14.2236 36.2744 13.2952 35.5018 12.5573 34.5801C11.8193 33.6579 11.2137 32.4473 10.7412 30.9492C10.2684 29.4505 10.032 27.7217 10.032 25.7623C10.032 22.9725 10.9433 20.5984 12.7655 18.6387C11.9119 16.5413 11.9925 14.1899 13.0075 11.585C13.6764 11.3773 14.6684 11.5332 15.983 12.0517C17.2978 12.5704 18.2605 13.0148 18.872 13.3832C19.4835 13.7515 19.9734 14.0636 20.3425 14.3168C22.488 13.7176 24.7021 13.418 26.9854 13.418C29.2688 13.418 31.4833 13.7176 33.629 14.3168L34.9437 13.4872C35.8427 12.9337 36.9044 12.4265 38.1262 11.9654C39.3486 11.5046 40.2834 11.3777 40.9296 11.5854C41.9671 14.1904 42.0596 16.5416 41.2058 18.6391C43.0278 20.5987 43.9395 22.9734 43.9395 25.7627C43.9395 27.7221 43.7022 29.4563 43.2302 30.9665C42.7576 32.4769 42.1467 33.6864 41.3973 34.5974C40.6471 35.5083 39.7128 36.2749 38.5943 36.8969C37.4755 37.5194 36.391 37.9688 35.3418 38.2456C34.2921 38.5225 33.1102 38.7306 31.7956 38.8689C32.9946 39.9059 33.5942 41.5428 33.5942 43.7788V51.0744C33.5942 51.4888 33.7384 51.8349 34.0271 52.1114C34.3154 52.3874 34.7706 52.4686 35.3935 52.353C40.7453 50.5783 45.1105 47.3798 48.4894 42.7575C51.8679 38.1357 53.5578 32.932 53.5578 27.1451C53.5566 22.3283 52.368 17.8854 49.9934 13.8165Z" fill="white"/>
<path d="M94.6358 23.8875H82.5122C82.1995 23.8875 81.9456 24.1424 81.9456 24.4562V30.403C81.9456 30.7167 82.1995 30.972 82.5122 30.972H87.2417V38.3604C87.2417 38.3604 86.1797 38.7236 83.2437 38.7236C79.7799 38.7236 74.9411 37.4538 74.9411 26.779C74.9411 16.1019 79.9797 14.6971 84.71 14.6971C88.8047 14.6971 90.5688 15.4204 91.6911 15.7688C92.0438 15.8773 92.3701 15.525 92.3701 15.211L93.7225 9.46519C93.7225 9.31841 93.673 9.14149 93.5059 9.02124C93.0502 8.69513 90.2693 7.13391 83.2437 7.13391C75.1502 7.13391 66.8481 10.5885 66.8481 27.1953C66.8481 43.8026 76.3533 46.2774 84.3631 46.2774C90.9951 46.2774 95.0182 43.434 95.0182 43.434C95.1841 43.3421 95.2021 43.1097 95.2021 43.003V24.4562C95.2021 24.1424 94.9486 23.8875 94.6358 23.8875ZM157.083 9.21262C157.083 8.89616 156.833 8.64088 156.52 8.64088H149.694C149.382 8.64088 149.128 8.89616 149.128 9.21262C149.128 9.21413 149.13 22.4477 149.13 22.4477H138.49V9.21262C138.49 8.89616 138.239 8.64088 137.927 8.64088H131.1C130.79 8.64088 130.537 8.89616 130.537 9.21262V45.0492C130.537 45.3654 130.79 45.6228 131.1 45.6228H137.927C138.239 45.6228 138.49 45.3654 138.49 45.0492V29.7206H149.13C149.13 29.7206 149.112 45.048 149.112 45.0492C149.112 45.3654 149.365 45.6228 149.677 45.6228H156.52C156.832 45.6228 157.082 45.3654 157.083 45.0492V9.21262ZM107.495 14.0039C107.495 11.5379 105.525 9.54506 103.093 9.54506C100.665 9.54506 98.6923 11.5379 98.6923 14.0039C98.6923 16.4672 100.665 18.4654 103.093 18.4654C105.525 18.4654 107.495 16.4672 107.495 14.0039ZM106.954 20.9661C106.954 20.652 106.701 20.3952 106.389 20.3952H99.5843C99.2722 20.3952 98.9928 20.7183 98.9928 21.0324V44.7324C98.9928 45.429 99.4254 45.636 99.9853 45.636H106.116C106.789 45.636 106.954 45.3048 106.954 44.7213V20.9661ZM183.173 20.3952H176.399C176.088 20.3952 175.835 20.652 175.835 20.9682V38.54C175.835 38.54 174.114 39.8032 171.672 39.8032C169.229 39.8032 168.581 38.6913 168.581 36.2919V20.9682C168.581 20.652 168.329 20.3952 168.018 20.3952H161.143C160.832 20.3952 160.578 20.652 160.578 20.9682V37.4523C160.578 44.579 164.537 46.3226 169.984 46.3226C174.452 46.3226 178.055 43.846 178.055 43.846C178.055 43.846 178.226 45.1511 178.304 45.306C178.382 45.4603 178.584 45.6161 178.802 45.6161L183.176 45.5968C183.486 45.5968 183.74 45.3395 183.74 45.0248L183.738 20.9682C183.738 20.652 183.485 20.3952 183.173 20.3952ZM198.78 39.8167C196.431 39.745 194.837 38.6753 194.837 38.6753V27.3267C194.837 27.3267 196.41 26.3598 198.339 26.1868C200.778 25.9677 203.128 26.707 203.128 32.545C203.128 38.7013 202.068 39.9162 198.78 39.8167ZM201.452 19.6255C197.605 19.6255 194.988 21.3476 194.988 21.3476V9.21262C194.988 8.89616 194.736 8.64088 194.425 8.64088H187.579C187.268 8.64088 187.015 8.89616 187.015 9.21262V45.0492C187.015 45.3654 187.268 45.6228 187.58 45.6228H192.33C192.544 45.6228 192.705 45.5121 192.825 45.3184C192.943 45.1258 193.113 43.6661 193.113 43.6661C193.113 43.6661 195.913 46.3274 201.212 46.3274C207.433 46.3274 211.001 43.1616 211.001 32.1152C211.001 21.0688 205.303 19.6255 201.452 19.6255ZM126.601 20.3337H121.48C121.48 20.3337 121.472 13.5485 121.472 13.547C121.472 13.2902 121.34 13.1618 121.045 13.1618H114.066C113.795 13.1618 113.65 13.2814 113.65 13.543V20.5565C113.65 20.5565 110.153 21.4034 109.916 21.4718C109.681 21.5402 109.507 21.7581 109.507 22.0179V26.4252C109.507 26.7423 109.76 26.9979 110.072 26.9979H113.65V37.6003C113.65 45.4754 119.156 46.2491 122.871 46.2491C124.569 46.2491 126.6 45.702 126.935 45.5779C127.138 45.5031 127.255 45.2924 127.255 45.064L127.261 40.2158C127.261 39.8996 126.995 39.6437 126.695 39.6437C126.397 39.6437 125.633 39.7655 124.848 39.7655C122.332 39.7655 121.48 38.5922 121.48 37.0734C121.48 35.5559 121.48 26.9979 121.48 26.9979H126.601C126.913 26.9979 127.166 26.7423 127.166 26.4252V20.9049C127.166 20.5887 126.913 20.3337 126.601 20.3337Z" fill="white"/>
</svg>
