<svg width="401" height="51" viewBox="0 0 401 51" fill="none" xmlns="http://www.w3.org/2000/svg">
<path d="M18.6029 50.0169C13.5783 50.0169 9.69025 47.8834 6.9387 43.6165C4.22702 39.3496 2.87118 33.1686 2.87118 25.0735C2.87118 16.8188 4.46629 10.578 7.65649 6.35095C10.8866 2.12392 15.6121 0.0104125 21.833 0.0104125C25.3023 0.0104125 28.2931 0.70827 30.8054 2.10399C33.3177 3.45982 35.2916 5.43376 36.7272 8.0258C38.1628 10.6178 38.9803 13.7482 39.1797 17.417H29.7885C29.2303 14.7053 28.2931 12.6715 26.9772 11.3157C25.6612 9.91999 23.9465 9.22213 21.833 9.22213C18.882 9.22213 16.6688 10.5381 15.1934 13.17C13.7179 15.7621 12.9801 19.7299 12.9801 25.0735C12.9801 30.776 13.6979 34.9631 15.1335 37.6349C16.609 40.2668 18.9219 41.5828 22.0722 41.5828C23.5477 41.5828 24.8238 41.2039 25.9005 40.4463C27.017 39.6487 27.8944 38.592 28.5324 37.276C29.1704 35.96 29.4895 34.4447 29.4895 32.73H20.7563V23.8173H38.2825V49H29.4895V45.0521H27.2763C26.6781 46.6073 25.6213 47.8236 24.106 48.7009C22.5906 49.5782 20.7563 50.0169 18.6029 50.0169ZM41.2251 49V39.4294H53.009V10.7175H41.2251V1.14693H74.8419V10.7175H63.0581V39.4294H74.8419V49H41.2251ZM90.1068 49V10.7175H76.5285V1.14693H113.734V10.7175H100.156V49H90.1068ZM127.814 49V1.14693H141.393L145.101 25.4922H146.178L149.827 1.14693H162.986V49H154.313V28.7223L154.971 9.93993H153.894L150.305 33.7468H140.555L136.907 9.93993H135.83L136.488 28.7223V49H127.814ZM168.023 49V1.14693H199.307V9.88011H178.132V20.8863H196.316V29.3802H178.132V40.2668H198.708V49H168.023ZM203.446 49V1.14693H221.929C225.159 1.14693 227.97 1.76503 230.363 3.00123C232.756 4.19756 234.61 5.93223 235.926 8.20525C237.282 10.4384 237.96 13.0504 237.96 16.0412C237.96 18.8326 237.282 21.2851 235.926 23.3986C234.57 25.4722 232.676 27.0873 230.243 28.2437C227.851 29.4002 225.079 29.9784 221.929 29.9784H213.555V49H203.446ZM227.791 49L215.887 28.3634H226.654L239.156 49H227.791ZM213.555 21.5443H221.69C223.604 21.5443 225.099 21.0658 226.176 20.1087C227.292 19.1118 227.851 17.7759 227.851 16.101C227.851 14.4262 227.292 13.1102 226.176 12.1531C225.099 11.1562 223.604 10.6577 221.69 10.6577H213.555V21.5443ZM254.361 50.0169C249.336 50.0169 245.448 47.8834 242.697 43.6165C239.985 39.3496 238.629 33.1686 238.629 25.0735C238.629 16.8188 240.224 10.578 243.415 6.35095C246.645 2.12392 251.37 0.0104125 257.591 0.0104125C261.06 0.0104125 264.051 0.70827 266.564 2.10399C269.076 3.45982 271.05 5.43376 272.485 8.0258C273.921 10.6178 274.738 13.7482 274.938 17.417H265.547C264.988 14.7053 264.051 12.6715 262.735 11.3157C261.419 9.91999 259.705 9.22213 257.591 9.22213C254.64 9.22213 252.427 10.5381 250.952 13.17C249.476 15.7621 248.738 19.7299 248.738 25.0735C248.738 30.776 249.456 34.9631 250.892 37.6349C252.367 40.2668 254.68 41.5828 257.83 41.5828C259.306 41.5828 260.582 41.2039 261.659 40.4463C262.775 39.6487 263.653 38.592 264.291 37.276C264.929 35.96 265.248 34.4447 265.248 32.73H256.514V23.8173H274.041V49H265.248V45.0521H263.034C262.436 46.6073 261.379 47.8236 259.864 48.7009C258.349 49.5782 256.514 50.0169 254.361 50.0169ZM279.316 49V1.14693H310.6V9.88011H289.425V20.8863H307.609V29.3802H289.425V40.2668H310.002V49H279.316Z" fill="#F7F3E5"/>
<path opacity="0.4" d="M327.264 34.8235L344.91 23.937C346.704 22.8204 348.02 21.6041 348.858 20.2882C349.735 18.9722 350.173 17.4967 350.173 15.8617C350.173 13.7482 349.595 12.1133 348.439 10.9568C347.282 9.80036 345.627 9.22213 343.474 9.22213C341.44 9.22213 339.746 9.86017 338.39 11.1363C337.034 12.3725 336.117 14.2068 335.638 16.6394H326.068C326.267 13.1301 327.104 10.1393 328.58 7.66691C330.055 5.15462 332.049 3.26044 334.561 1.98435C337.114 0.668393 340.084 0.0104125 343.474 0.0104125C346.943 0.0104125 349.934 0.648454 352.447 1.92454C354.959 3.20062 356.893 5.03499 358.249 7.42764C359.605 9.78042 360.282 12.5918 360.282 15.8617C360.282 19.2115 359.385 22.1823 357.591 24.7744C355.836 27.3664 353.104 29.7192 349.396 31.8327L338.21 38.3527V39.4294H359.206V49H327.264V34.8235ZM392.595 1.14693V27.4063H399.773V36.9171H392.595V49H382.606V36.9171H361.251V23.9968L375.248 1.14693H392.595ZM370.164 26.3296V27.4063H382.606V3.95829H384.221L370.164 26.3296Z" fill="#F7F3E5"/>
</svg>
