<svg width="551" height="733" viewBox="0 0 551 733" fill="none" xmlns="http://www.w3.org/2000/svg">
<g clip-path="url(#clip0_116_2003)">
<path d="M30.2007 733.092V521M460.817 -13L127.683 320.135L103.683 344.135L57.2778 390.54C39.9406 407.877 30.2007 431.391 30.2007 455.91V483.5" stroke="#FFC85E" stroke-width="11"/>
<path d="M495 748.078V457.855C495 439.467 502.305 421.831 515.308 408.828L585.136 339" stroke="#3EE0D6" stroke-width="11"/>
<path d="M30.2007 586.91L86.0824 531.029C100.642 516.469 125.537 526.781 125.537 547.371V747" stroke="#FFC85E" stroke-width="11"/>
<circle cx="25.1324" cy="25.1324" r="25.1324" transform="matrix(1 0 0.207912 0.978148 0 560.332)" fill="#FFC85E"/>
<path d="M607.682 142.706L420.686 329.703C405.516 344.873 396.994 365.448 396.994 386.901V471.961C396.994 493.109 423.521 502.578 436.913 486.211V486.211C440.203 482.191 442 477.156 442 471.961V392.658L589.158 245.5" stroke="#F7F3E5" stroke-width="11"/>
<path d="M337.587 494.959L284.019 548.526C273.184 559.362 267.096 574.058 267.096 589.382L267.096 741.5" stroke="#3EE0D6" stroke-width="11"/>
<circle cx="25.1324" cy="25.1324" r="25.1324" transform="matrix(1 0 0.207912 0.978148 327.187 614.644)" fill="#F7F3E5"/>
<circle cx="25.1324" cy="25.1324" r="25.1324" transform="matrix(1 0 0.207912 0.978148 165 645)" fill="#F7F3E5"/>
<path d="M357 639.5L357 754.5" stroke="#F7F3E5" stroke-width="11"/>
<path d="M194.813 669.856L194.813 784.856" stroke="#F7F3E5" stroke-width="11"/>
<path d="M200.683 588.294L200.683 544.414C200.683 538.844 202.895 533.503 206.833 529.564L307.548 428.849C320.778 415.62 343.398 424.989 343.398 443.698V552.618C343.398 571.327 366.018 580.697 379.247 567.468L404.618 542.097C417.847 528.868 440.467 538.237 440.467 556.946V732.165" stroke="#E03E3E" stroke-width="11"/>
<circle cx="25.1324" cy="25.1324" r="25.1324" transform="matrix(1 0 0.207912 0.978148 312.683 468)" fill="#3EE0D6"/>
<circle cx="25.1324" cy="25.1324" r="25.1324" transform="matrix(1 0 0.207912 0.978148 258 235)" fill="#3EE0D6"/>
<path d="M195.45 664.335L226.651 582.288L164.249 593.844L195.45 664.335Z" fill="#E03E3E"/>
<path d="M45 491.798L110.548 426.25C128.02 408.778 157.894 421.152 157.894 445.861V475.974L186.009 449.926C205.241 432.107 236.473 445.748 236.473 471.966V500.241" stroke="#F7F3E5" stroke-width="11"/>
<circle cx="25.1324" cy="25.1324" r="25.1324" transform="matrix(1 0 0.207912 0.978148 205.85 477.13)" fill="#F7F3E5"/>
<circle cx="25.1324" cy="25.1324" r="25.1324" transform="matrix(1 0 0.207912 0.978148 164.249 228.678)" fill="#FFC85E"/>
<circle cx="19.7277" cy="19.7277" r="19.7277" transform="matrix(1 0 0.207912 0.978148 6.68262 483)" stroke="#F7F3E5" stroke-width="11"/>
<path d="M194.872 285.302V360.5C194.872 391.386 232.214 406.853 254.053 385.014L278.573 360.493C287.49 351.577 301.695 350.82 311.509 358.738L312.218 359.31C326.914 371.167 348.939 362.792 352.043 344.166L360.028 296.26C361.215 289.133 364.601 282.555 369.71 277.446L627 20.1558" stroke="#BF8EFE" stroke-width="11"/>
<path d="M296.5 253.5L361.315 188.685C368.951 181.048 374.295 171.424 376.739 160.904L385.797 121.913C391.587 96.9912 415.333 80.5217 440.703 83.8309V83.8309C456.023 85.8291 471.402 80.5985 482.326 69.6742L566.5 -14.5" stroke="#3EE0D6" stroke-width="11"/>
<path d="M196.605 255.257L227.806 337.303L165.404 325.747L196.605 255.257Z" fill="#BF8EFE"/>
</g>
<defs>
<clipPath id="clip0_116_2003">
<rect width="551" height="733" fill="white"/>
</clipPath>
</defs>
</svg>
