<svg width="450" height="594" viewBox="0 0 450 594" fill="none" xmlns="http://www.w3.org/2000/svg">
<g clip-path="url(#clip0_117_2125)">
<path d="M24.2266 598.074V372.937M459.66 -0.428345L58.7419 253.172C37.2532 266.765 24.2266 290.419 24.2266 315.846V342.855" stroke="#FFC85E" stroke-width="8.82401"/>
<path d="M397.08 610.095V388.135C397.08 367.321 408.701 348.25 427.197 338.707L469.385 316.94" stroke="#3EE0D6" stroke-width="8.82401"/>
<path d="M24.2266 419.809L72.6877 390.992C85.0461 383.643 100.703 392.549 100.703 406.927V609.231" stroke="#FFC85E" stroke-width="8.82401"/>
<circle cx="20.1608" cy="20.1608" r="20.1608" transform="matrix(1 0 0.207912 0.978148 0 401.489)" fill="#FFC85E"/>
<path d="M487.472 190.477L350.551 270.689C330.675 282.333 318.462 303.642 318.462 326.678V388.599C318.462 405.564 339.742 413.16 350.484 400.03V400.03C353.123 396.805 354.565 392.766 354.565 388.599V327.983L472.612 256.936" stroke="#F7F3E5" stroke-width="8.82401"/>
<path d="M270.806 437.047L235.45 459.898C222.239 468.437 214.26 483.094 214.26 498.825L214.26 634.819" stroke="#3EE0D6" stroke-width="8.82401"/>
<circle cx="20.1608" cy="20.1608" r="20.1608" transform="matrix(1 0 0.207912 0.978148 262.464 503.057)" fill="#F7F3E5"/>
<circle cx="20.1608" cy="20.1608" r="20.1608" transform="matrix(1 0 0.207912 0.978148 132.36 527.408)" fill="#F7F3E5"/>
<path d="M286.38 522.996L286.38 615.247" stroke="#F7F3E5" stroke-width="8.82401"/>
<path d="M156.276 547.347L156.276 639.598" stroke="#F7F3E5" stroke-width="8.82401"/>
<path d="M160.984 481.92L160.984 425.152C160.984 419.304 164.018 413.874 168.998 410.807L249.79 361.067C261.014 354.157 275.468 362.231 275.468 375.412V453.841C275.468 467.016 289.912 475.091 301.136 468.192L327.667 451.882C338.892 444.982 353.335 453.058 353.335 466.233V607.626" stroke="#E03E3E" stroke-width="8.82401"/>
<circle cx="20.1608" cy="20.1608" r="20.1608" transform="matrix(1 0 0.207912 0.978148 250.829 415.422)" fill="#3EE0D6"/>
<circle cx="20.1608" cy="20.1608" r="20.1608" transform="matrix(1 0 0.207912 0.978148 206.964 198.513)" fill="#3EE0D6"/>
<path d="M156.787 542.918L181.815 477.101L131.758 486.371L156.787 542.918Z" fill="#E03E3E"/>
<path d="M36.0986 350.512L92.6267 315.207C107.445 305.952 126.66 316.605 126.66 334.076V368.818L153.792 353.581C169.858 344.558 189.695 356.169 189.695 374.595V411.285" stroke="#F7F3E5" stroke-width="8.82401"/>
<circle cx="20.1608" cy="20.1608" r="20.1608" transform="matrix(1 0 0.207912 0.978148 166 376)" fill="#F7F3E5"/>
<circle cx="20.1608" cy="20.1608" r="20.1608" transform="matrix(1 0 0.207912 0.978148 131.758 173.442)" fill="#FFC85E"/>
<circle cx="15.8252" cy="15.8252" r="15.8252" transform="matrix(1 0 0.207912 0.978148 5.36035 340.454)" stroke="#F7F3E5" stroke-width="8.82401"/>
<path d="M156.323 208.864V280.745C156.323 303.654 182.471 316.738 200.806 303.002L221.96 287.155C229.992 281.139 241.255 282.086 248.169 289.359L249.492 290.751C260.741 302.584 280.672 296.474 283.356 280.37L288.21 251.244C289.522 243.373 294.152 236.445 300.922 232.221L502.969 106.169" stroke="#BF8EFE" stroke-width="8.82401"/>
<path d="M237.848 211.353L295.329 172.397C304.155 166.416 309.975 156.921 311.301 146.342L312.247 138.795C314.917 117.492 337.632 105.028 357.034 114.219V114.219C366.961 118.922 378.62 118.119 387.81 112.101L474.437 55.3683" stroke="#3EE0D6" stroke-width="8.82401"/>
<path d="M157.713 194.762L182.742 260.579L132.685 251.309L157.713 194.762Z" fill="#BF8EFE"/>
</g>
<defs>
<clipPath id="clip0_117_2125">
<rect width="450" height="594" fill="white"/>
</clipPath>
</defs>
</svg>
