<svg width="638" height="228" viewBox="0 0 638 228" fill="none" xmlns="http://www.w3.org/2000/svg">
<g clip-path="url(#clip0_101_1740)">
<path d="M-48 -47.999H32.504C49.0725 -47.999 62.504 -34.5676 62.504 -17.999V38.2394C62.504 54.808 75.9355 68.2395 92.5041 68.2394L400 68.2385V-48" stroke="#3EE0D6" stroke-width="11"/>
<path d="M234.667 67.001C234.667 83.2013 247.8 96.3343 264 96.3343C280.2 96.3343 293.333 83.2013 293.333 67.001C293.333 50.8006 280.2 37.6676 264 37.6676C247.8 37.6676 234.667 50.8006 234.667 67.001ZM264 -36.999V-42.499H258.5V-36.999H264ZM269.5 67.001V-36.999H258.5V67.001H269.5ZM264 -31.499H784V-42.499H264V-31.499Z" fill="#FFD336"/>
<path d="M263.779 141.119V146.619H269.279V141.119H263.779ZM263.779 66.3945L232.025 121.395H295.533L263.779 66.3945ZM-48 146.619H263.779V135.619H-48V146.619ZM269.279 141.119V115.895H258.279V141.119H269.279Z" fill="#E03E3E"/>
<path d="M189 159V184.5C189 205.211 205.789 222 226.5 222V222C247.211 222 264 205.211 264 184.5V159" stroke="#FFD336" stroke-width="11"/>
<path d="M100 222V227.5H105.5V222H100ZM70.6667 142C70.6667 158.2 83.7997 171.333 100 171.333C116.2 171.333 129.333 158.2 129.333 142C129.333 125.8 116.2 112.667 100 112.667C83.7997 112.667 70.6667 125.8 70.6667 142ZM-48 227.5H100V216.5H-48V227.5ZM105.5 222V142H94.5V222H105.5Z" fill="#E03E3E"/>
<path d="M370.667 69C370.667 85.2004 383.8 98.3333 400 98.3333C416.2 98.3333 429.333 85.2004 429.333 69C429.333 52.7996 416.2 39.6667 400 39.6667C383.8 39.6667 370.667 52.7996 370.667 69ZM394.5 69V102H405.5V69H394.5ZM520 227.5H797V216.5H520V227.5ZM394.5 102C394.5 171.312 450.688 227.5 520 227.5V216.5C456.763 216.5 405.5 165.237 405.5 102H394.5Z" fill="#3EE0D6"/>
</g>
<defs>
<clipPath id="clip0_101_1740">
<rect width="638" height="228" fill="white"/>
</clipPath>
</defs>
</svg>
