<svg width="167" height="294" viewBox="0 0 167 294" fill="none" xmlns="http://www.w3.org/2000/svg">
<path d="M153.587 221.437L165.845 261.101L149.354 266.198L135.128 255.028L131.795 244.243L137.096 226.533L153.587 221.437ZM149.149 228.939L142.031 231.139L138.512 244.31L140.637 251.183L150.839 259.638L157.956 257.438L149.149 228.939Z" fill="#231F20"/>
<path d="M128.089 229.156L125.69 254.549L115.352 269.653L107.539 268.915L100.184 252.14L102.583 226.747L109.009 227.354L108.003 237.998L120.686 239.196L121.691 228.552L128.089 229.156ZM120.234 243.98L107.551 242.782L106.8 250.737L111.947 263.676L119.488 251.878L120.234 243.98Z" fill="#231F20"/>
<path d="M93.2001 221.983L85.5856 236.032L87.3972 253.994L82.3434 263.319L76.5935 260.203L80.7937 252.453L79.8018 239.722L68.6461 245.804L64.4188 253.604L58.7689 250.542L63.8227 241.217L79.8857 232.943L87.5002 218.893L93.2001 221.983Z" fill="#231F20"/>
<path d="M64.1889 195.3L32.0393 211.747L37.362 222.152L32.3321 224.182L19.1095 198.336L23.6862 195.419L29.0866 205.976L61.2362 189.528L64.1889 195.3Z" fill="#231F20"/>
<path d="M56.2636 176.562L36.5002 183.805L15.3257 185.484L14.8807 179.872L35.2615 178.256L48.5569 173.978L33.9126 171.317L26.7127 171.888L26.3284 167.041L33.4716 166.474L47.5679 161.506L33.8235 159.401L13.386 161.022L12.941 155.409L34.1155 153.73L54.7757 157.797L55.1735 162.814L40.0405 168.378L55.8726 171.63L56.2636 176.562Z" fill="#231F20"/>
<path d="M57.2625 145.152L39.5395 150.533L28.8061 147.036L17.7897 132.291L20.4499 124.126L37.9496 118.972L48.683 122.469L59.8346 137.257L57.2625 145.152ZM39.5837 143.788L52.4651 140.509L53.2227 138.184L44.7544 127.918L37.9143 125.689L25.1674 128.923L24.4098 131.248L32.7435 141.56L39.5837 143.788Z" fill="#231F20"/>
<path d="M61 11.5H70C94.5767 11.5 114.5 31.4233 114.5 56V91H89L111.92 136.84C98.7682 140.022 89 151.87 89 166C89 182.569 102.431 196 119 196C135.569 196 149 182.569 149 166C149 152.826 140.508 141.635 128.699 137.602L152 91H125.5V56C125.5 25.3482 100.652 0.5 70 0.5H61V11.5Z" fill="#FFBDC5"/>
</svg>
