<svg width="659" height="310" viewBox="0 0 659 310" fill="none" xmlns="http://www.w3.org/2000/svg">
<path d="M151.699 256.25L164.01 295.997L147.485 301.116L133.22 289.93L129.872 279.122L135.174 261.369L151.699 256.25ZM147.256 263.773L140.124 265.982L136.605 279.185L138.738 286.073L148.969 294.54L156.102 292.331L147.256 263.773Z" fill="#F7F3E5"/>
<path d="M126.261 263.946L123.917 289.403L113.591 304.566L105.759 303.845L98.3468 287.049L100.691 261.592L107.133 262.185L106.15 272.856L118.865 274.027L119.847 263.356L126.261 263.946ZM118.423 278.823L105.709 277.652L104.975 285.627L110.164 298.583L117.694 286.741L118.423 278.823Z" fill="#F7F3E5"/>
<path d="M91.3763 256.868L83.8394 271.001L85.7763 288.991L80.7741 298.371L74.9902 295.286L79.1475 287.491L78.0674 274.738L66.9275 280.909L62.7433 288.755L57.06 285.724L62.0622 276.344L78.1058 267.943L85.6427 253.81L91.3763 256.868Z" fill="#F7F3E5"/>
<path d="M62.6043 231.209L54.1141 247.718L44.1101 253.004L25.8137 250.648L21.7929 243.037L30.2903 226.847L40.2944 221.562L58.7167 223.851L62.6043 231.209ZM49.2908 242.982L55.916 231.423L54.771 229.256L41.4756 228.19L35.1003 231.558L28.5359 242.988L29.6809 245.155L42.9155 246.35L49.2908 242.982Z" fill="#F7F3E5"/>
<path d="M54.4065 215.297L12.9791 219.19L12.4963 214.055L39.3268 197.392L39.2948 197.051L11.1185 199.699L10.5477 193.627L51.9751 189.733L52.4365 194.642L25.2328 211.598L25.2649 211.938L53.8384 209.253L54.4065 215.297Z" fill="#F7F3E5"/>
<path d="M52.1659 188.564L12.419 176.253L19.5446 153.248L24.9279 154.17L19.5057 171.675L31.6748 175.444L36.0513 161.315L40.9789 162.842L36.6023 176.971L48.8803 180.774L54.5976 162.316L59.5866 164.607L52.1659 188.564Z" fill="#F7F3E5"/>
<path d="M629 60C645.569 60 659 46.5685 659 30C659 13.4315 645.569 0 629 0C614.31 0 602.086 10.5582 599.503 24.5H553C527.871 24.5 507.5 44.871 507.5 70V72C507.5 91.0538 492.054 106.5 473 106.5H346V117.5H473C498.129 117.5 518.5 97.129 518.5 72V70C518.5 50.9462 533.946 35.5 553 35.5H599.503C602.086 49.4418 614.31 60 629 60Z" fill="url(#paint0_linear_141_125)"/>
<path d="M599 168.5H585.679C560.728 168.5 536.768 178.265 518.925 195.705L422.716 289.745C416.973 295.358 409.263 298.5 401.233 298.5C384.26 298.5 370.5 284.74 370.5 267.767V197C370.5 179.051 385.051 164.5 403 164.5H417.5C433.516 164.5 446.5 151.516 446.5 135.5C446.5 119.484 433.516 106.5 417.5 106.5H301C275.871 106.5 255.5 126.871 255.5 152V161C255.5 180.054 240.054 195.5 221 195.5H145.497C142.914 181.558 130.69 171 116 171C99.4315 171 86 184.431 86 201C86 217.569 99.4315 231 116 231C130.69 231 142.914 220.442 145.497 206.5H221C246.129 206.5 266.5 186.129 266.5 161V152C266.5 132.946 281.946 117.5 301 117.5H417.5C427.441 117.5 435.5 125.559 435.5 135.5C435.5 145.441 427.441 153.5 417.5 153.5H403C378.976 153.5 359.5 172.976 359.5 197V267.767C359.5 290.815 378.185 309.5 401.233 309.5C412.137 309.5 422.607 305.233 430.405 297.611L526.614 203.572C542.402 188.14 563.602 179.5 585.679 179.5H599V168.5Z" fill="url(#paint1_linear_141_125)"/>
<defs>
<linearGradient id="paint0_linear_141_125" x1="346" y1="71" x2="629" y2="71" gradientUnits="userSpaceOnUse">
<stop stop-color="#F7F3E4"/>
<stop offset="1" stop-color="#BF8CFF"/>
</linearGradient>
<linearGradient id="paint1_linear_141_125" x1="456" y1="159" x2="599" y2="174.5" gradientUnits="userSpaceOnUse">
<stop stop-color="#F7F3E5"/>
<stop offset="1" stop-color="#FFBDC5"/>
</linearGradient>
</defs>
</svg>
