<svg width="158" height="350" viewBox="0 0 158 350" fill="none" xmlns="http://www.w3.org/2000/svg">
<g clip-path="url(#clip0_146_268)">
<circle cx="75.7728" cy="80.7907" r="22.1868" transform="rotate(140.598 75.7728 80.7907)" fill="#F7F3E5"/>
<path d="M31.3292 65.9756L5.63494 49.0408L12.6757 38.3584L26.0787 38.054L33.0654 42.6589L38.3699 55.2932L31.3292 65.9756ZM30.3368 59.5913L33.3758 54.9804L29.1885 45.7834L24.736 42.8488L14.9147 42.8128L11.8757 47.4237L30.3368 59.5913Z" fill="#F7F3E5"/>
<path d="M42.2534 49.636L31.6424 33.988L30.4252 20.4758L35.24 17.2109L47.3602 23.3297L57.9712 38.9777L54.0112 41.663L49.5634 35.1037L41.7481 40.4033L46.1959 46.9626L42.2534 49.636ZM39.7489 37.4551L47.5642 32.1556L44.2401 27.2536L35.1922 22.2856L36.4485 32.588L39.7489 37.4551Z" fill="#F7F3E5"/>
<path d="M65.5118 37.3049L63.1843 25.6903L53.6321 16.3188L52.0874 8.6102L56.8407 7.65767L58.1245 14.0643L64.7285 20.8451L68.1974 12.0888L66.9053 5.64082L71.5759 4.70486L73.1207 12.4135L67.8963 24.7461L70.2237 36.3607L65.5118 37.3049Z" fill="#F7F3E5"/>
<path d="M93.9991 38.4611L91.101 25.0412L94.3367 17.3244L105.899 10.0819L111.769 12.5433L114.513 25.7845L111.278 33.5013L99.6749 40.841L93.9991 38.4611ZM96.0808 25.4837L97.7209 35.1992L99.3925 35.9002L107.491 30.2679L109.553 25.3502L107.939 15.7368L106.267 15.0359L98.1429 20.5659L96.0808 25.4837Z" fill="#F7F3E5"/>
<path d="M106.154 43.7063L128 22.0334L130.687 24.7418L123.177 46.8594L123.355 47.0389L138.213 32.2984L141.39 35.5006L119.544 57.1734L116.976 54.5848L124.562 32.1247L124.384 31.9452L109.316 46.8935L106.154 43.7063Z" fill="#F7F3E5"/>
<path d="M119.984 57.9311L148.477 46.308L155.204 62.7992L151.695 64.7997L146.576 52.2508L137.853 55.8093L141.984 65.9382L138.452 67.3792L134.32 57.2503L125.518 60.8407L130.916 74.0727L126.989 75.1053L119.984 57.9311Z" fill="#F7F3E5"/>
<circle cx="76.3759" cy="268.968" r="22.1868" transform="rotate(-45.4345 76.3759 268.968)" fill="#FFBDC5"/>
<path d="M126.042 285.074L151.619 302.058L144.558 312.692L131.184 312.95L124.229 308.332L118.98 295.708L126.042 285.074ZM127.01 291.447L123.962 296.037L128.108 305.227L132.541 308.171L142.339 308.24L145.387 303.65L127.01 291.447Z" fill="#231F20"/>
<path d="M115.048 301.424L125.554 317.091L126.699 330.578L121.878 333.811L109.818 327.644L99.3116 311.977L103.276 309.318L107.68 315.885L115.505 310.638L111.101 304.071L115.048 301.424ZM117.484 313.59L109.66 318.837L112.951 323.745L121.952 328.748L120.752 318.463L117.484 313.59Z" fill="#231F20"/>
<path d="M91.7087 313.637L93.9202 325.247L103.361 334.688L104.829 342.393L100.077 343.298L98.8575 336.894L92.3335 330.066L88.7893 338.769L90.017 345.215L85.3483 346.104L83.8805 338.399L89.2102 326.144L86.9987 314.535L91.7087 313.637Z" fill="#231F20"/>
<path d="M62.6086 311.927L51.8886 336.388L59.8048 339.857L57.8736 343.373L38.2082 334.755L39.4653 330.944L47.4971 334.464L58.2171 310.002L62.6086 311.927Z" fill="#231F20"/>
<path d="M49.3027 304.901L41.3713 318.296L30.0284 329.164L27.1478 326.158L38.0655 315.697L43.6797 307.027L34.0468 312.354L30.1899 316.049L27.7021 313.453L31.5286 309.787L37.2783 300.346L28.421 305.57L17.4729 316.06L14.5923 313.053L25.9352 302.186L39.6715 294.849L42.2466 297.537L36.1818 307.804L46.7712 302.259L49.3027 304.901Z" fill="#231F20"/>
<path d="M35.1802 286.443L27.546 297.817L19.7621 300.835L6.55418 297.544L4.25808 291.622L11.8702 280.483L19.6542 277.465L32.9601 280.718L35.1802 286.443ZM24.4161 293.933L30.26 286.028L29.6062 284.342L19.9531 282.424L14.9926 284.347L9.20425 292.163L9.8581 293.849L19.4555 295.856L24.4161 293.933Z" fill="#231F20"/>
<path d="M76 138.419H57C40.4315 138.419 27 151.85 27 168.419V184.347C27 194.648 32.2849 204.228 40.9981 209.723L62.0019 222.968C70.7151 228.462 76 238.043 76 248.344V255" stroke="#3EE0D6" stroke-width="6"/>
<path d="M76 282L76 75.5" stroke="url(#paint0_linear_146_268)" stroke-width="6"/>
<path d="M76 84V106.841C76 115.403 79.6588 123.558 86.0548 129.25L114.228 154.326C120.624 160.018 124.283 168.173 124.283 176.735V195.276C124.283 208.609 113.475 219.417 100.142 219.417V219.417C86.8086 219.417 76 230.226 76 243.559V250" stroke="url(#paint1_linear_146_268)" stroke-width="6"/>
</g>
<defs>
<linearGradient id="paint0_linear_146_268" x1="76" y1="198.5" x2="76" y2="262.5" gradientUnits="userSpaceOnUse">
<stop stop-color="#F7F3E5"/>
<stop offset="1" stop-color="#FFBDC5"/>
</linearGradient>
<linearGradient id="paint1_linear_146_268" x1="89" y1="102.5" x2="100.142" y2="270" gradientUnits="userSpaceOnUse">
<stop stop-color="#F7F3E5"/>
<stop offset="0.335907" stop-color="#FFC1A2"/>
<stop offset="0.662949" stop-color="#FFC0A2"/>
<stop offset="1" stop-color="#FFBDC5"/>
</linearGradient>
<clipPath id="clip0_146_268">
<rect width="158" height="350" fill="white"/>
</clipPath>
</defs>
</svg>
