<svg width="472" height="209" viewBox="0 0 472 209" fill="none" xmlns="http://www.w3.org/2000/svg">
<g clip-path="url(#clip0_166_64)">
<path d="M-36 234.804H21.0955C37.664 234.804 51.0955 221.372 51.0955 204.804V173.189C51.0955 156.62 64.527 143.189 81.0955 143.189L404.098 143.189V234.805" stroke="#3EE0D6" stroke-width="11"/>
<path d="M180.574 144.165C180.574 127.965 193.707 114.832 209.907 114.832C226.108 114.832 239.241 127.965 239.241 144.165C239.241 160.365 226.108 173.498 209.907 173.498C193.707 173.498 180.574 160.365 180.574 144.165ZM209.907 226.134V231.634H204.407V226.134H209.907ZM215.407 144.165V226.134H204.407V144.165H215.407ZM209.907 220.634H619.753V231.634H209.907V220.634Z" fill="#FFD336"/>
<path d="M209.733 65.7474V60.2474H215.233V65.7474H209.733ZM209.733 144.643L177.979 89.6429H241.488L209.733 144.643ZM57.8667 118.5H63.3667V122.244L59.8836 123.617L57.8667 118.5ZM215.233 65.7474V95.1429H204.233V65.7474H215.233ZM-36 60.2474H57.8667V71.2474H-36V60.2474ZM57.8667 60.2474H209.733V71.2474H57.8667V60.2474ZM63.3667 65.7474V118.5H52.3667V65.7474H63.3667ZM59.8836 123.617L-33.9831 160.617L-38.0169 150.383L55.8497 113.383L59.8836 123.617Z" fill="#E03E3E"/>
<path d="M95 165V177.5C95 194.897 109.103 209 126.5 209V209C143.897 209 158 194.897 158 177.5V165" stroke="#FFD336" stroke-width="11"/>
<path d="M57 10V4.5H62.5V10H57ZM27.6667 65C27.6667 48.7996 40.7996 35.6667 57 35.6667C73.2004 35.6667 86.3333 48.7996 86.3333 65C86.3333 81.2004 73.2004 94.3333 57 94.3333C40.7996 94.3333 27.6667 81.2004 27.6667 65ZM-36 4.5H57V15.5H-36V4.5ZM62.5 10V65H51.5V10H62.5Z" fill="#E03E3E"/>
<path d="M371.667 143C371.667 126.8 384.8 113.667 401 113.667C417.2 113.667 430.333 126.8 430.333 143C430.333 159.2 417.2 172.333 401 172.333C384.8 172.333 371.667 159.2 371.667 143ZM521 16.5H670V27.5H521V16.5ZM395.5 143C395.5 73.7478 451.629 16.5 521 16.5V27.5C457.823 27.5 406.5 79.7038 406.5 143H395.5Z" fill="#3EE0D6"/>
<circle cx="305.918" cy="144.227" r="29.0721" transform="rotate(140.598 305.918 144.227)" fill="#F7F3E5"/>
<circle cx="305.918" cy="99.9181" r="29.0721" transform="rotate(140.598 305.918 99.9181)" fill="#F7F3E5"/>
<path d="M259.368 80.9756L233.674 64.0408L240.715 53.3584L254.118 53.054L261.105 57.6589L266.409 70.2932L259.368 80.9756ZM258.376 74.5913L261.415 69.9804L257.228 60.7834L252.775 57.8488L242.954 57.8128L239.915 62.4237L258.376 74.5913Z" fill="#F7F3E5"/>
<path d="M270.292 64.636L259.681 48.988L258.464 35.4758L263.279 32.2109L275.399 38.3297L286.01 53.9777L282.05 56.663L277.602 50.1037L269.787 55.4033L274.235 61.9626L270.292 64.636ZM267.788 52.4551L275.603 47.1556L272.279 42.2536L263.231 37.2856L264.488 47.588L267.788 52.4551Z" fill="#F7F3E5"/>
<path d="M293.551 52.3049L291.223 40.6903L281.671 31.3188L280.126 23.6102L284.88 22.6577L286.164 29.0643L292.768 35.8451L296.236 27.0888L294.944 20.6408L299.615 19.7049L301.16 27.4135L295.935 39.7461L298.263 51.3607L293.551 52.3049Z" fill="#F7F3E5"/>
<path d="M322.038 53.4611L319.14 40.0412L322.376 32.3244L333.938 25.0819L339.808 27.5433L342.552 40.7845L339.317 48.5013L327.714 55.841L322.038 53.4611ZM324.12 40.4837L325.76 50.1992L327.432 50.9002L335.53 45.2679L337.592 40.3502L335.978 30.7368L334.306 30.0359L326.182 35.5659L324.12 40.4837Z" fill="#F7F3E5"/>
<path d="M334.193 58.7063L356.039 37.0334L358.726 39.7418L351.216 61.8594L351.394 62.0389L366.253 47.2984L369.429 50.5006L347.583 72.1734L345.015 69.5848L352.601 47.1247L352.423 46.9452L337.355 61.8935L334.193 58.7063Z" fill="#F7F3E5"/>
<path d="M348.023 72.9311L376.516 61.308L383.243 77.7992L379.734 79.7997L374.615 67.2508L365.892 70.8093L370.023 80.9382L366.491 82.3792L362.359 72.2503L353.557 75.8407L358.955 89.0727L355.028 90.1053L348.023 72.9311Z" fill="#F7F3E5"/>
</g>
<defs>
<clipPath id="clip0_166_64">
<rect width="472" height="209" fill="white"/>
</clipPath>
</defs>
</svg>
