<svg width="472" height="209" viewBox="0 0 472 209" fill="none" xmlns="http://www.w3.org/2000/svg">
<g clip-path="url(#clip0_166_76)">
<path d="M-35 200.999H38.2587C47.0276 200.999 55.3575 197.163 61.0571 190.499L111.519 131.5C117.219 124.837 125.548 121 134.317 121L166.327 121C175.937 121 184.965 125.604 190.609 133.382L209.496 159.415C212.954 164.18 218.485 167 224.372 167V167C234.522 167 242.75 158.772 242.75 148.622V144C242.75 131.298 253.047 121 265.75 121L405 121.001V171C405 187.569 418.431 201 435 201H505.5" stroke="#3EE0D6" stroke-width="11"/>
<path d="M149.333 122C149.333 138.2 136.2 151.333 120 151.333C103.8 151.333 90.6667 138.2 90.6667 122C90.6667 105.8 103.8 92.6667 120 92.6667C136.2 92.6667 149.333 105.8 149.333 122ZM323.5 122V161H312.5V122H323.5ZM278 206.5H160V195.5H278V206.5ZM114.5 161V122H125.5V161H114.5ZM160 206.5C134.871 206.5 114.5 186.129 114.5 161H125.5C125.5 180.054 140.946 195.5 160 195.5V206.5ZM323.5 161C323.5 186.129 303.129 206.5 278 206.5V195.5C297.054 195.5 312.5 180.054 312.5 161H323.5Z" fill="white"/>
<path d="M64.9315 108.483L34.5489 92.7008L41.1105 80.0692L55.9073 78.1895L64.1689 82.4811L71.4931 95.8517L64.9315 108.483ZM63.0985 101.533L65.9307 96.0804L60.2383 86.385L54.9734 83.6501L44.101 84.7408L41.2688 90.193L63.0985 101.533Z" fill="#231F20"/>
<path d="M75.1714 89.0455L61.6561 72.9272L58.7796 58.1096L63.7391 53.9511L77.8463 59.3517L91.3616 75.47L87.2826 78.8902L81.6173 72.1338L73.5672 78.884L79.2324 85.6404L75.1714 89.0455ZM71.0208 75.8472L79.071 69.0971L74.8371 64.0477L64.2607 59.5732L66.817 70.8338L71.0208 75.8472Z" fill="#231F20"/>
<path d="M99.5933 72.7226L95.7577 60.1141L84.1654 50.7721L81.6197 42.4039L86.7798 40.8342L88.8955 47.789L96.9426 54.5818L99.835 44.5102L97.7056 37.5105L102.776 35.968L105.322 44.3363L100.873 58.558L104.708 71.1665L99.5933 72.7226Z" fill="#231F20"/>
<path d="M132.061 71.1513L141.032 42.7526L131.841 39.8496L133.563 35.7211L156.394 42.9327L155.455 47.3085L146.13 44.3631L137.16 72.7617L132.061 71.1513Z" fill="#231F20"/>
<path d="M147.651 77.3546L154.849 61.558L166.13 48.1567L169.682 51.1469L158.824 64.0458L153.632 74.3277L163.678 67.2736L167.513 62.7168L170.581 65.2992L166.776 69.8201L161.526 80.9725L170.724 74.1243L181.612 61.1895L185.164 64.1796L173.883 77.5809L159.528 87.3519L156.352 84.6789L161.853 72.573L150.773 79.9823L147.651 77.3546Z" fill="#231F20"/>
<path d="M165.509 96.1367L172.618 82.6169L180.888 78.3427L195.925 80.4179L199.176 86.7093L192.064 99.9669L183.793 104.241L168.653 102.22L165.509 96.1367ZM176.551 86.5499L171.014 96.0108L171.939 97.8024L182.871 98.7786L188.141 96.0548L193.628 86.6995L192.702 84.9079L181.822 83.826L176.551 86.5499Z" fill="#231F20"/>
<path d="M372.667 121C372.667 104.8 385.8 91.6667 402 91.6667C418.2 91.6667 431.333 104.8 431.333 121C431.333 137.2 418.2 150.333 402 150.333C385.8 150.333 372.667 137.2 372.667 121ZM396.5 121V72H407.5V121H396.5ZM442 26.5H671V37.5H442V26.5ZM396.5 72C396.5 46.871 416.871 26.5 442 26.5V37.5C422.946 37.5 407.5 52.9462 407.5 72H396.5Z" fill="#E03E3E"/>
<path d="M288.667 122C288.667 138.2 301.8 151.333 318 151.333C334.2 151.333 347.333 138.2 347.333 122C347.333 105.8 334.2 92.6667 318 92.6667C301.8 92.6667 288.667 105.8 288.667 122ZM212 48H206.5V53.5H212V48ZM323.5 122V78H312.5V122H323.5ZM288 42.5H212V53.5H288V42.5ZM217.5 48V-33H206.5V48H217.5ZM323.5 78C323.5 58.3939 307.606 42.5 288 42.5V53.5C301.531 53.5 312.5 64.469 312.5 78H323.5Z" fill="#FFD336"/>
</g>
<defs>
<clipPath id="clip0_166_76">
<rect width="472" height="209" fill="white"/>
</clipPath>
</defs>
</svg>
