<svg width="221" height="533" viewBox="0 0 221 533" fill="none" xmlns="http://www.w3.org/2000/svg">
<g clip-path="url(#clip0_143_257)">
<path d="M177.482 444.173L212.067 467.138L202.519 481.517L184.436 481.866L175.031 475.621L167.934 458.552L177.482 444.173ZM178.791 452.791L174.67 458.997L180.276 471.424L186.269 475.403L199.519 475.497L203.64 469.291L178.791 452.791Z" fill="#231F20"/>
<path d="M162.617 466.281L176.823 487.465L178.371 505.702L171.852 510.073L155.544 501.734L141.339 480.55L146.7 476.955L152.654 485.835L163.234 478.74L157.28 469.86L162.617 466.281ZM165.911 482.731L155.331 489.826L159.781 496.462L171.952 503.227L170.329 489.32L165.911 482.731Z" fill="#231F20"/>
<path d="M131.058 482.795L134.049 498.493L146.814 511.259L148.799 521.678L142.374 522.901L140.725 514.242L131.903 505.01L127.111 516.778L128.771 525.493L122.458 526.695L120.473 516.276L127.68 499.707L124.69 484.008L131.058 482.795Z" fill="#231F20"/>
<path d="M91.7104 480.482L77.2152 513.558L87.9192 518.249L85.3079 523.003L58.7172 511.35L60.417 506.196L71.2772 510.955L85.7724 477.88L91.7104 480.482Z" fill="#231F20"/>
<path d="M73.7187 470.983L62.9942 489.095L47.6569 503.79L43.7618 499.725L58.5243 485.58L66.1156 473.857L53.0904 481.06L47.8753 486.057L44.5113 482.546L49.6854 477.588L57.4598 464.823L45.4834 471.887L30.6799 486.071L26.7848 482.006L42.1221 467.311L60.6958 457.391L64.1778 461.025L55.9772 474.907L70.2958 467.41L73.7187 470.983Z" fill="#231F20"/>
<path d="M54.6229 446.024L44.3003 461.403L33.7752 465.484L15.916 461.034L12.8113 453.027L23.1042 437.965L33.6292 433.884L51.621 438.283L54.6229 446.024ZM40.0681 456.152L47.9701 445.463L47.086 443.183L34.0335 440.589L27.3261 443.19L19.4993 453.758L20.3835 456.038L33.3607 458.753L40.0681 456.152Z" fill="#231F20"/>
<path d="M113 442L113 -148.5" stroke="#FFBDC5" stroke-width="10"/>
<path d="M113 -190V-139.609C113 -123.041 99.5685 -109.609 83 -109.609H77C60.4315 -109.609 47 -96.1777 47 -79.6092V41.2558C47 49.2747 50.2104 56.9599 55.9146 62.596L104.085 110.192C109.79 115.828 113 123.513 113 131.532V156" stroke="url(#paint0_linear_143_257)" stroke-width="10"/>
<path d="M113 135.5V207.451C113 224.02 99.5685 237.451 83 237.451H51.601C35.0944 237.451 21.6887 250.786 21.6014 267.293L21.3007 324.122C21.1944 344.224 45.8809 353.927 59.4909 339.134L83.4892 313.049C93.9762 301.65 113 309.07 113 324.559V387" stroke="#3EE0D6" stroke-width="10"/>
<path d="M113 398V376.827C113 366.907 117.904 357.629 126.1 352.04L187.803 309.97C196.053 304.345 200.963 294.984 200.902 285L200.155 162.873C200.069 148.808 188.643 137.452 174.578 137.452V137.452C160.452 137.452 149 148.903 149 163.03V165.226C149 180.565 136.565 193 121.226 193H88.5C78.2827 193 70 184.717 70 174.5V174.5C70 164.283 78.2827 156 88.5 156H110" stroke="url(#paint1_linear_143_257)" stroke-width="10"/>
<path d="M113 -152V-94.3531C113 -85.8119 116.641 -77.6757 123.009 -71.9842L167.991 -31.7847C174.359 -26.0932 178 -17.957 178 -9.41581V67.6598C178 84.2284 164.569 97.6598 148 97.6598H143C126.431 97.6598 113 111.091 113 127.66V139" stroke="url(#paint2_linear_143_257)" stroke-width="10"/>
<circle cx="113.425" cy="424.395" r="30" transform="rotate(-45.4345 113.425 424.395)" fill="#FFBDC5"/>
</g>
<defs>
<linearGradient id="paint0_linear_143_257" x1="80" y1="-148" x2="80" y2="156" gradientUnits="userSpaceOnUse">
<stop stop-color="#F7F3E5"/>
<stop offset="0.312032" stop-color="#FFC1A5"/>
<stop offset="1" stop-color="#FFC85E"/>
</linearGradient>
<linearGradient id="paint1_linear_143_257" x1="180" y1="248" x2="135.5" y2="398" gradientUnits="userSpaceOnUse">
<stop stop-color="#FFC85E"/>
<stop offset="1" stop-color="#FFBDC5"/>
</linearGradient>
<linearGradient id="paint2_linear_143_257" x1="145.5" y1="-130" x2="163.5" y2="-17" gradientUnits="userSpaceOnUse">
<stop stop-color="#F7F3E5"/>
<stop offset="1" stop-color="#3EE0D6"/>
</linearGradient>
<clipPath id="clip0_143_257">
<rect width="221" height="533" fill="white" transform="matrix(1 0 0 -1 0 533)"/>
</clipPath>
</defs>
</svg>
