<svg width="221" height="319" viewBox="0 0 221 319" fill="none" xmlns="http://www.w3.org/2000/svg">
<g clip-path="url(#clip0_143_247)">
<path d="M49.4147 124.365L14.6721 101.467L24.1923 87.0225L42.3153 86.611L51.7625 92.8375L58.9349 109.921L49.4147 124.365ZM48.0729 115.733L52.1821 109.498L46.5202 97.0624L40.4998 93.0944L27.2198 93.0457L23.1106 99.2804L48.0729 115.733Z" fill="#F7F3E5"/>
<path d="M64.186 102.272L49.8383 81.1132L48.1924 62.8425L54.7027 58.4278L71.0912 66.7014L85.439 87.86L80.0844 91.4909L74.0702 82.6218L63.5027 89.7877L69.517 98.6568L64.186 102.272ZM60.7995 85.8013L71.367 78.6354L66.8723 72.0071L54.6382 65.2896L56.3368 79.2202L60.7995 85.8013Z" fill="#F7F3E5"/>
<path d="M95.635 85.5981L92.4879 69.8934L79.5718 57.2217L77.4831 46.7984L83.9103 45.5104L85.6462 54.1732L94.5758 63.3419L99.2664 51.502L97.5192 42.7833L103.835 41.5178L105.923 51.941L98.8592 68.6166L102.006 84.3214L95.635 85.5981Z" fill="#F7F3E5"/>
<path d="M134.154 87.1615L130.236 69.0157L134.611 58.5813L150.244 48.7883L158.182 52.1165L161.893 70.0207L157.517 80.4551L141.829 90.3795L134.154 87.1615ZM136.969 69.614L139.187 82.7509L141.447 83.6987L152.397 76.0831L155.185 69.4335L153.003 56.4347L150.742 55.4869L139.757 62.9644L136.969 69.614Z" fill="#F7F3E5"/>
<path d="M150.59 94.2538L180.129 64.9487L183.762 68.6109L173.607 98.5173L173.848 98.7601L193.939 78.8286L198.235 83.1584L168.695 112.463L165.222 108.963L175.48 78.5937L175.239 78.3509L154.865 98.5634L150.59 94.2538Z" fill="#F7F3E5"/>
<path d="M169.289 113.488L207.817 97.7717L216.913 120.07L212.169 122.775L205.247 105.807L193.451 110.619L199.038 124.315L194.261 126.263L188.675 112.567L176.773 117.422L184.072 135.314L178.762 136.71L169.289 113.488Z" fill="#F7F3E5"/>
<path d="M113 761L113 170.5" stroke="#FFBDC5" stroke-width="10"/>
<path d="M113 129V179.391C113 195.959 99.5685 209.391 83 209.391H77C60.4315 209.391 47 222.822 47 239.391V360.256C47 368.275 50.2104 375.96 55.9146 381.596L104.085 429.192C109.79 434.828 113 442.513 113 450.532V475" stroke="url(#paint0_linear_143_247)" stroke-width="10"/>
<path d="M113 167V224.647C113 233.188 116.641 241.324 123.009 247.016L167.991 287.215C174.359 292.907 178 301.043 178 309.584V386.66C178 403.228 164.569 416.66 148 416.66H143C126.431 416.66 113 430.091 113 446.66V458" stroke="url(#paint1_linear_143_247)" stroke-width="10"/>
<circle cx="112.776" cy="144.398" r="30" transform="rotate(140.598 112.776 144.398)" fill="#F7F3E5"/>
</g>
<defs>
<linearGradient id="paint0_linear_143_247" x1="80" y1="171" x2="80" y2="475" gradientUnits="userSpaceOnUse">
<stop stop-color="#F7F3E5"/>
<stop offset="0.312032" stop-color="#FFC1A5"/>
<stop offset="1" stop-color="#FFC85E"/>
</linearGradient>
<linearGradient id="paint1_linear_143_247" x1="145.5" y1="189" x2="163.5" y2="302" gradientUnits="userSpaceOnUse">
<stop stop-color="#F7F3E5"/>
<stop offset="1" stop-color="#3EE0D6"/>
</linearGradient>
<clipPath id="clip0_143_247">
<rect width="221" height="319" fill="white"/>
</clipPath>
</defs>
</svg>
